<mxfile host="app.diagrams.net" modified="2022-11-25T03:26:23.497Z" agent="5.0 (Macintosh; Intel Mac OS X 10_15_7) AppleWebKit/537.36 (KHTML, like Gecko) Chrome/107.0.0.0 Safari/537.36" etag="cutKgWdzOvWnUT9uhsqc" version="20.5.3" type="github">
  <diagram id="sGh4CZPOP6-HCWjMFk3K" name="ページ1">
    <mxGraphModel dx="2664" dy="4340" grid="1" gridSize="10" guides="1" tooltips="1" connect="1" arrows="1" fold="1" page="1" pageScale="1" pageWidth="1654" pageHeight="1169" math="0" shadow="0">
      <root>
        <mxCell id="0" />
        <mxCell id="1" parent="0" />
        <mxCell id="bEE76rGEyNJp1CKL3x8u-1" value="&lt;p style=&quot;margin:0px;margin-top:4px;text-align:center;&quot;&gt;&lt;i&gt;&amp;lt;&amp;lt;control&amp;gt;&amp;gt;&lt;/i&gt;&lt;br&gt;&lt;b&gt;小動物コントローラー｜smallanimal-controller&lt;/b&gt;&lt;/p&gt;&lt;hr size=&quot;1&quot;&gt;&lt;p style=&quot;margin:0px;margin-left:4px;&quot;&gt;+ 元データ｜database: Array&lt;br&gt;&lt;/p&gt;&lt;p style=&quot;margin:0px;margin-left:4px;&quot;&gt;+ 表示用｜animals: Array&lt;br&gt;&lt;/p&gt;&lt;p style=&quot;margin:0px;margin-left:4px;&quot;&gt;+ 電柱マスタ｜poles: Array&lt;/p&gt;&lt;br&gt;&lt;div&gt;&lt;/div&gt;&lt;hr size=&quot;1&quot;&gt;&lt;p style=&quot;margin:0px;margin-left:4px;&quot;&gt;&lt;/p&gt;&amp;nbsp;&lt;span style=&quot;background-color: initial;&quot;&gt;+ 初期設定&lt;/span&gt;する()｜&lt;span style=&quot;background-color: initial;&quot;&gt;initialize()&lt;/span&gt;&lt;span style=&quot;background-color: initial;&quot;&gt;&lt;br&gt;&lt;/span&gt;&amp;nbsp;+ 日付範囲を条件指定抽出し、表示内容を変更する()｜&lt;span style=&quot;background-color: initial;&quot;&gt;filterDateRange(dates: Array):&lt;br&gt;&lt;/span&gt;&amp;nbsp;+ 自身のデータのみを条件抽出する()｜&lt;span style=&quot;background-color: initial;&quot;&gt;filterMyData():&amp;nbsp; Array&lt;/span&gt;&lt;span style=&quot;background-color: initial;&quot;&gt;&lt;br&gt;&lt;/span&gt;&amp;nbsp;+ 単一更新する｜save(item: Object, key: String)&lt;br&gt;&amp;nbsp;+ 画像をアップロードし、情報を更新する｜saveAnimalPicture(item: Object, files: Array)&lt;br&gt;&amp;nbsp;+ 画像を削除し、情報を更新する｜removeAnimalPicture():&amp;nbsp;&lt;br&gt;&amp;nbsp;+ 公開・非公開を更新する｜savePublic(item: Object):&lt;br&gt;&amp;nbsp;+ 位置情報の共有方法を更新する｜saveLatlnginput():" style="verticalAlign=top;align=left;overflow=fill;fontSize=12;fontFamily=Helvetica;html=1;" vertex="1" parent="1">
          <mxGeometry x="1120" y="-1890" width="480" height="250" as="geometry" />
        </mxCell>
        <mxCell id="bEE76rGEyNJp1CKL3x8u-2" value="&lt;p style=&quot;margin:0px;margin-top:4px;text-align:center;&quot;&gt;&lt;i&gt;&amp;lt;&amp;lt;entity&amp;gt;&amp;gt;&lt;/i&gt;&lt;br&gt;&lt;b&gt;小動物モデル｜animal&lt;/b&gt;&lt;/p&gt;&lt;hr size=&quot;1&quot;&gt;&lt;p style=&quot;margin:0px;margin-left:4px;&quot;&gt;&lt;span style=&quot;background-color: initial;&quot;&gt;+ form: {&amp;nbsp;&lt;/span&gt;&lt;br&gt;&lt;/p&gt;&lt;p style=&quot;margin:0px;margin-left:4px;&quot;&gt;&amp;nbsp; &amp;nbsp;date: String&lt;/p&gt;&lt;p style=&quot;margin:0px;margin-left:4px;&quot;&gt;&amp;nbsp; &amp;nbsp;year_month: String&lt;/p&gt;&lt;p style=&quot;margin:0px;margin-left:4px;&quot;&gt;&amp;nbsp; &amp;nbsp;month_term: String&lt;/p&gt;&lt;p style=&quot;margin:0px;margin-left:4px;&quot;&gt;&amp;nbsp; &amp;nbsp;time: String&lt;/p&gt;&lt;p style=&quot;margin:0px;margin-left:4px;&quot;&gt;&amp;nbsp; &amp;nbsp;day_term: String&lt;/p&gt;&lt;p style=&quot;margin:0px;margin-left:4px;&quot;&gt;&amp;nbsp; &amp;nbsp;number: String&lt;/p&gt;&lt;p style=&quot;margin:0px;margin-left:4px;&quot;&gt;&amp;nbsp; &amp;nbsp;note: String&lt;/p&gt;&lt;p style=&quot;margin:0px;margin-left:4px;&quot;&gt;&amp;nbsp; &amp;nbsp;lat: String,&lt;/p&gt;&lt;p style=&quot;margin:0px;margin-left:4px;&quot;&gt;&amp;nbsp; &amp;nbsp;lng: String,&lt;/p&gt;&lt;p style=&quot;margin:0px;margin-left:4px;&quot;&gt;&amp;nbsp; &amp;nbsp;latlng_type: String&lt;/p&gt;&lt;p style=&quot;margin:0px;margin-left:4px;&quot;&gt;&amp;nbsp; &amp;nbsp;emergency_rank: String&lt;/p&gt;&lt;p style=&quot;margin:0px;margin-left:4px;&quot;&gt;&amp;nbsp; &amp;nbsp;is_public: Boolean&lt;/p&gt;&lt;p style=&quot;margin:0px;margin-left:4px;&quot;&gt;&amp;nbsp; &amp;nbsp;is_traffic_accident: Boolean&lt;/p&gt;&lt;p style=&quot;margin:0px;margin-left:4px;&quot;&gt;&lt;span style=&quot;background-color: initial;&quot;&gt;&amp;nbsp; &amp;nbsp;is_date: Boolean&lt;/span&gt;&lt;br&gt;&lt;/p&gt;&lt;p style=&quot;margin:0px;margin-left:4px;&quot;&gt;&amp;nbsp; &amp;nbsp;is_time: Boolean&lt;/p&gt;&lt;p style=&quot;margin:0px;margin-left:4px;&quot;&gt;&amp;nbsp; &amp;nbsp;pole_id: String&lt;/p&gt;&lt;p style=&quot;margin:0px;margin-left:4px;&quot;&gt;&amp;nbsp; &amp;nbsp;is_pole_koho: false,&lt;/p&gt;&lt;p style=&quot;margin:0px;margin-left:4px;&quot;&gt;&amp;nbsp; &amp;nbsp;large_category_id: String&lt;/p&gt;&lt;p style=&quot;margin:0px;margin-left:4px;&quot;&gt;&amp;nbsp; &amp;nbsp;small_category_id: String&lt;/p&gt;&lt;p style=&quot;margin:0px;margin-left:4px;&quot;&gt;&amp;nbsp; &amp;nbsp;animal_category_id: String,&lt;/p&gt;&lt;p style=&quot;margin:0px;margin-left:4px;&quot;&gt;&amp;nbsp; &amp;nbsp;animal_size_id: String,&lt;/p&gt;&lt;p style=&quot;margin:0px;margin-left:4px;&quot;&gt;&amp;nbsp; &amp;nbsp;animal_category_name: String&lt;/p&gt;&lt;p style=&quot;margin:0px;margin-left:4px;&quot;&gt;&amp;nbsp; &amp;nbsp;animal_detail_size: String&lt;/p&gt;&lt;p style=&quot;margin:0px;margin-left:4px;&quot;&gt;&amp;nbsp; &amp;nbsp;batch_id: Boolean&lt;/p&gt;&lt;p style=&quot;margin:0px;margin-left:4px;&quot;&gt;&amp;nbsp; &amp;nbsp;is_register: Boolean&lt;br&gt;&lt;/p&gt;&lt;p style=&quot;margin:0px;margin-left:4px;&quot;&gt;&amp;nbsp; &amp;nbsp;find_location: String&lt;/p&gt;&lt;p style=&quot;margin:0px;margin-left:4px;&quot;&gt;&amp;nbsp; &amp;nbsp;survival_state: String&lt;/p&gt;&lt;p style=&quot;margin:0px;margin-left:4px;&quot;&gt;&amp;nbsp; &amp;nbsp;is_evaluation: Boolean&lt;/p&gt;&lt;p style=&quot;margin:0px;margin-left:4px;&quot;&gt;&amp;nbsp; &amp;nbsp;created: Date&lt;/p&gt;&lt;p style=&quot;margin:0px;margin-left:4px;&quot;&gt;&amp;nbsp; &amp;nbsp;created_username: String&lt;/p&gt;&lt;p style=&quot;margin:0px;margin-left:4px;&quot;&gt;&amp;nbsp; &amp;nbsp;created_uid: null,&lt;/p&gt;&lt;p style=&quot;margin:0px;margin-left:4px;&quot;&gt;&amp;nbsp; &amp;nbsp;updated: null,&lt;/p&gt;&lt;p style=&quot;margin:0px;margin-left:4px;&quot;&gt;&amp;nbsp; &amp;nbsp;updated_username: null,&lt;/p&gt;&lt;p style=&quot;margin:0px;margin-left:4px;&quot;&gt;&amp;nbsp; &amp;nbsp;updated_uid: null,&lt;/p&gt;&lt;p style=&quot;margin:0px;margin-left:4px;&quot;&gt;&amp;nbsp; &amp;nbsp;user: {&lt;/p&gt;&lt;p style=&quot;margin:0px;margin-left:4px;&quot;&gt;&amp;nbsp; &amp;nbsp; role: String,&lt;/p&gt;&lt;p style=&quot;margin:0px;margin-left:4px;&quot;&gt;&amp;nbsp; &amp;nbsp; attribute_type: String,&lt;/p&gt;&lt;p style=&quot;margin:0px;margin-left:4px;&quot;&gt;&amp;nbsp; &amp;nbsp; username: String,&lt;/p&gt;&lt;p style=&quot;margin:0px;margin-left:4px;&quot;&gt;&amp;nbsp; &amp;nbsp; email: String,&lt;/p&gt;&lt;p style=&quot;margin:0px;margin-left:4px;&quot;&gt;&amp;nbsp; &amp;nbsp; phone: String,&lt;/p&gt;&lt;p style=&quot;margin:0px;margin-left:4px;&quot;&gt;&amp;nbsp; &amp;nbsp; uid: String,&lt;/p&gt;&lt;p style=&quot;margin:0px;margin-left:4px;&quot;&gt;&amp;nbsp; }&lt;/p&gt;&lt;p style=&quot;margin:0px;margin-left:4px;&quot;&gt;&amp;nbsp; reporter: {&lt;/p&gt;&lt;p style=&quot;margin:0px;margin-left:4px;&quot;&gt;&amp;nbsp; &amp;nbsp; name: String,&lt;/p&gt;&lt;p style=&quot;margin:0px;margin-left:4px;&quot;&gt;&amp;nbsp; &amp;nbsp; email: String,&lt;/p&gt;&lt;p style=&quot;margin:0px;margin-left:4px;&quot;&gt;&amp;nbsp; &amp;nbsp; phone: String,&lt;/p&gt;&lt;p style=&quot;margin:0px;margin-left:4px;&quot;&gt;&amp;nbsp; &amp;nbsp; note: String,&lt;/p&gt;&lt;p style=&quot;margin:0px;margin-left:4px;&quot;&gt;&amp;nbsp; &amp;nbsp; attribute_type: String&lt;/p&gt;&lt;p style=&quot;margin:0px;margin-left:4px;&quot;&gt;&amp;nbsp; }&lt;/p&gt;&lt;p style=&quot;margin:0px;margin-left:4px;&quot;&gt;}&lt;/p&gt;&lt;p style=&quot;margin:0px;margin-left:4px;&quot;&gt;+&amp;nbsp;editItem: {}&lt;br&gt;&lt;/p&gt;&lt;p style=&quot;margin: 0px 0px 0px 4px;&quot;&gt;&lt;span style=&quot;background-color: initial;&quot;&gt;+&amp;nbsp;newItem: {}&lt;/span&gt;&lt;br&gt;&lt;/p&gt;&lt;p style=&quot;margin: 0px 0px 0px 4px;&quot;&gt;+&amp;nbsp;searchItem: {}&lt;span style=&quot;background-color: initial;&quot;&gt;&lt;br&gt;&lt;/span&gt;&lt;/p&gt;&lt;hr size=&quot;1&quot;&gt;&lt;p style=&quot;margin: 0px 0px 0px 4px;&quot;&gt;+ データを形成する()｜shapingData(): Object&lt;br&gt;&lt;/p&gt;&lt;p style=&quot;margin: 0px 0px 0px 4px;&quot;&gt;+ 検索｜matchCustom(params: Object, data: String):&amp;nbsp;&lt;/p&gt;&lt;p style=&quot;margin: 0px 0px 0px 4px;&quot;&gt;+ 日付データ表示形式を変換する()｜convertDate(): String&lt;br&gt;&lt;/p&gt;&lt;p style=&quot;margin: 0px 0px 0px 4px;&quot;&gt;+ カタカナをひらがなに変換する()｜katakanaToHiragana()&lt;/p&gt;&lt;p style=&quot;margin: 0px 0px 0px 4px;&quot;&gt;+ ひらがなをカタカナ&lt;span style=&quot;background-color: initial;&quot;&gt;に変換する()｜hiraganaToKatagana()&lt;/span&gt;&lt;/p&gt;" style="verticalAlign=top;align=left;overflow=fill;fontSize=12;fontFamily=Helvetica;html=1;" vertex="1" parent="1">
          <mxGeometry x="160" y="-2218.31" width="357" height="929" as="geometry" />
        </mxCell>
        <mxCell id="bEE76rGEyNJp1CKL3x8u-3" value="&lt;p style=&quot;margin:0px;margin-top:4px;text-align:center;&quot;&gt;&lt;i&gt;&amp;lt;&amp;lt;boundary&amp;gt;&amp;gt;&lt;/i&gt;&lt;b&gt;&lt;br&gt;&lt;/b&gt;&lt;/p&gt;&lt;p style=&quot;margin:0px;margin-top:4px;text-align:center;&quot;&gt;&lt;b&gt;index&lt;/b&gt;&lt;/p&gt;&lt;hr size=&quot;1&quot;&gt;&lt;div&gt;&lt;span style=&quot;background-color: initial;&quot;&gt;&amp;nbsp;+&lt;/span&gt;&lt;span style=&quot;background-color: initial;&quot;&gt;&amp;nbsp;&lt;/span&gt;&lt;span style=&quot;background-color: initial;&quot;&gt;title: String&lt;/span&gt;&lt;br&gt;&lt;/div&gt;&lt;div&gt;&lt;div&gt;&lt;span style=&quot;background-color: initial;&quot;&gt;&amp;nbsp;+&lt;/span&gt;&lt;span style=&quot;background-color: initial;&quot;&gt;&amp;nbsp;&lt;/span&gt;snack: Boolean&lt;/div&gt;&lt;div&gt;&lt;span style=&quot;background-color: initial;&quot;&gt;&amp;nbsp;+&lt;/span&gt;&lt;span style=&quot;background-color: initial;&quot;&gt;&amp;nbsp;&lt;/span&gt;snackColor: String&lt;/div&gt;&lt;div&gt;&lt;span style=&quot;background-color: initial;&quot;&gt;&amp;nbsp;+&lt;/span&gt;&lt;span style=&quot;background-color: initial;&quot;&gt;&amp;nbsp;&lt;/span&gt;snackText:&amp;nbsp;&lt;span style=&quot;background-color: initial;&quot;&gt;String&lt;/span&gt;&lt;/div&gt;&lt;div&gt;&lt;span style=&quot;background-color: initial;&quot;&gt;&amp;nbsp;+&lt;/span&gt;&lt;span style=&quot;background-color: initial;&quot;&gt;&amp;nbsp;&lt;/span&gt;loadingSub: Boolean&lt;/div&gt;&lt;div&gt;&lt;span style=&quot;background-color: initial;&quot;&gt;&amp;nbsp;+&lt;/span&gt;&lt;span style=&quot;background-color: initial;&quot;&gt;&amp;nbsp;&lt;/span&gt;isOpenFileupload:&amp;nbsp;&lt;span style=&quot;background-color: initial;&quot;&gt;Boolean&lt;/span&gt;&lt;/div&gt;&lt;/div&gt;&lt;hr size=&quot;1&quot;&gt;&lt;p style=&quot;margin:0px;margin-left:4px;&quot;&gt;&lt;/p&gt;&amp;nbsp;+ 検索条件を初期化する()｜initSearch():&amp;nbsp;&lt;br&gt;&amp;nbsp;+ 検索条件をクリアする()｜clearlSearch(key: String):&amp;nbsp;&lt;br&gt;&amp;nbsp;+ 検索値を取得する()｜readySearch(search_item: Object):&amp;nbsp;&lt;br&gt;&amp;nbsp;+ 検索する(key: String)｜searchOn():&amp;nbsp;&lt;br&gt;&amp;nbsp;+ インポート選択画面を表示する()｜openFileupload():&amp;nbsp;&lt;br&gt;&amp;nbsp;+ インポート選択画面を閉じる()｜closeFileupload():&amp;nbsp;&lt;br&gt;&amp;nbsp;+ メッセージを表示する()｜showSnack():&amp;nbsp;&lt;br&gt;&amp;nbsp;+ 自身のデータのみを取得する()｜changeMyData(search_item: Object):&amp;nbsp;&lt;br&gt;&amp;nbsp;+ データ更新後の表を再表示()｜afterUpdate(item: Object):&lt;br&gt;&amp;nbsp;+ 編集画面を表示する()｜modalOpen(item: Object, key: String):" style="verticalAlign=top;align=left;overflow=fill;fontSize=12;fontFamily=Helvetica;html=1;" vertex="1" parent="1">
          <mxGeometry x="1120" y="-1543.25" width="480" height="353.25" as="geometry" />
        </mxCell>
        <mxCell id="bEE76rGEyNJp1CKL3x8u-4" value="&amp;lt;&amp;lt;create&amp;gt;&amp;gt;" style="endArrow=open;startArrow=none;endFill=0;startFill=0;endSize=8;html=1;verticalAlign=bottom;dashed=1;labelBackgroundColor=none;rounded=0;fontColor=#000000;sourcePerimeterSpacing=0;targetPerimeterSpacing=0;strokeWidth=2;jumpSize=6;entryX=1;entryY=0.5;entryDx=0;entryDy=0;" edge="1" parent="1" source="bEE76rGEyNJp1CKL3x8u-1" target="bEE76rGEyNJp1CKL3x8u-5">
          <mxGeometry x="-0.1894" y="-2" width="160" relative="1" as="geometry">
            <mxPoint x="-70" y="-1305.5" as="sourcePoint" />
            <mxPoint x="-140" y="-1305.5" as="targetPoint" />
            <mxPoint as="offset" />
          </mxGeometry>
        </mxCell>
        <mxCell id="bEE76rGEyNJp1CKL3x8u-5" value="&lt;p style=&quot;margin:0px;margin-top:4px;text-align:center;&quot;&gt;&lt;i&gt;&amp;lt;&amp;lt;entities&amp;gt;&amp;gt;&lt;/i&gt;&lt;br&gt;&lt;b&gt;小動物複数｜&lt;/b&gt;&lt;b&gt;animal&lt;/b&gt;&lt;b&gt;s&lt;/b&gt;&lt;br&gt;&lt;/p&gt;&lt;hr size=&quot;1&quot;&gt;&lt;p style=&quot;margin:0px;margin-left:4px;&quot;&gt;+ items: Array&lt;/p&gt;&lt;p style=&quot;margin:0px;margin-left:4px;&quot;&gt;+ 電柱｜poles: Array&lt;/p&gt;&lt;div style=&quot;&quot;&gt;&lt;div&gt;&amp;nbsp;#&amp;nbsp;分類群｜largeCategories: Array&lt;/div&gt;&lt;div&gt;&amp;nbsp;+ 小分類群｜smallCategories: Array&lt;/div&gt;&lt;div&gt;&amp;nbsp;+ 種名｜animalCategories: Array&lt;/div&gt;&lt;div&gt;&amp;nbsp;+ 大きさ｜animalSizes: Array&lt;/div&gt;&lt;div&gt;&amp;nbsp;+ 目撃現場｜findLocations: Array&lt;/div&gt;&lt;div&gt;&lt;p style=&quot;margin: 0px 0px 0px 4px;&quot;&gt;# 電柱の選択肢()｜poleOptions(): Array&lt;br&gt;&lt;/p&gt;&lt;p style=&quot;margin: 0px 0px 0px 4px;&quot;&gt;&lt;span style=&quot;background-color: initial;&quot;&gt;#&lt;/span&gt;&amp;nbsp;分類の選択肢()｜largeCategoryOptions(): Array&lt;br&gt;&lt;/p&gt;&lt;p style=&quot;margin: 0px 0px 0px 4px;&quot;&gt;&lt;span style=&quot;background-color: initial;&quot;&gt;#&lt;/span&gt;&amp;nbsp;小分類の選択肢()｜smallCategoryOptions(): Array&lt;br&gt;&lt;/p&gt;&lt;p style=&quot;margin: 0px 0px 0px 4px;&quot;&gt;&lt;span style=&quot;background-color: initial;&quot;&gt;#&lt;/span&gt;&amp;nbsp;種名の選択肢()｜animalCategoryOptions(): Array&lt;br&gt;&lt;/p&gt;&lt;p style=&quot;margin: 0px 0px 0px 4px;&quot;&gt;&lt;span style=&quot;background-color: initial;&quot;&gt;#&lt;/span&gt;&amp;nbsp;大きさの選択肢()｜animalSizeOptions(): Array&lt;br&gt;&lt;/p&gt;&lt;p style=&quot;margin: 0px 0px 0px 4px;&quot;&gt;&lt;span style=&quot;background-color: initial;&quot;&gt;#&lt;/span&gt;&amp;nbsp;目撃現場の選択肢()｜findLocationOptions(): Array&lt;/p&gt;&lt;/div&gt;&lt;/div&gt;&lt;hr size=&quot;1&quot;&gt;&lt;p style=&quot;margin:0px;margin-left:4px;&quot;&gt;&lt;br&gt;&lt;/p&gt;" style="verticalAlign=top;align=left;overflow=fill;fontSize=12;fontFamily=Helvetica;html=1;fontColor=#000000;" vertex="1" parent="1">
          <mxGeometry x="640" y="-1897" width="360" height="286.38" as="geometry" />
        </mxCell>
        <mxCell id="bEE76rGEyNJp1CKL3x8u-6" value="&lt;p style=&quot;margin:0px;margin-top:4px;text-align:center;&quot;&gt;&lt;i&gt;&amp;lt;&amp;lt;bind&amp;gt;&amp;gt;&lt;/i&gt;&lt;br&gt;&lt;b&gt;小動物一覧｜animal-table&lt;/b&gt;&lt;/p&gt;&lt;hr size=&quot;1&quot;&gt;&lt;div&gt;&lt;span style=&quot;background-color: initial;&quot;&gt;&amp;nbsp;+ items: Array&lt;/span&gt;&lt;br&gt;&lt;/div&gt;&lt;div&gt;&amp;nbsp;+ columns: Array&lt;span style=&quot;background-color: initial;&quot;&gt;&lt;br&gt;&lt;/span&gt;&lt;/div&gt;&lt;div&gt;&amp;nbsp;+ sortBy: String&lt;/div&gt;&lt;div&gt;&lt;span style=&quot;background-color: initial;&quot;&gt;&amp;nbsp;+ isNone: Boolean&lt;/span&gt;&lt;/div&gt;&lt;hr size=&quot;1&quot;&gt;&lt;p style=&quot;margin:0px;margin-left:4px;&quot;&gt;&lt;span style=&quot;background-color: initial;&quot;&gt;+ 初期設定()｜init():&amp;nbsp;&lt;/span&gt;&lt;/p&gt;&lt;p style=&quot;margin:0px;margin-left:4px;&quot;&gt;+ 抽出表示のデータ件数を取得する()｜getSearchNumbers():&lt;span style=&quot;background-color: initial;&quot;&gt;&lt;br&gt;&lt;/span&gt;&lt;/p&gt;&lt;p style=&quot;margin:0px;margin-left:4px;&quot;&gt;&lt;span style=&quot;background-color: initial;&quot;&gt;+ 表示データを抽出する｜tableFilter():&lt;/span&gt;&lt;/p&gt;&lt;p style=&quot;margin:0px;margin-left:4px;&quot;&gt;+ 行をダブルクリックで発生し、編集行を保持()｜editRow(row: Object):&lt;/p&gt;&lt;p style=&quot;margin:0px;margin-left:4px;&quot;&gt;+ DB更新後の再表示｜afterUpdate():&lt;br&gt;+ 更新する()｜save(item: Object, key: String):&amp;nbsp;&lt;/p&gt;&lt;p style=&quot;margin:0px;margin-left:4px;&quot;&gt;+ 種名を更新する()｜saveAnimalCategory(item: Object):&amp;nbsp;&lt;br&gt;&lt;/p&gt;&lt;p style=&quot;margin:0px;margin-left:4px;&quot;&gt;+ 種名選択の変更を保持する()｜changeAnimalCategory(item: Object):&amp;nbsp;&lt;br&gt;&lt;/p&gt;&lt;p style=&quot;margin:0px;margin-left:4px;&quot;&gt;&lt;span style=&quot;background-color: initial;&quot;&gt;+ 編集行を初期化する()｜cancelEdit(item: Object):&lt;/span&gt;&lt;/p&gt;&amp;nbsp;+ データ表示件数を増やす()｜moreDisplay():&lt;br&gt;&amp;nbsp;+ 次のデータを追加取得する()｜fetchItems():&amp;nbsp;&lt;br&gt;&amp;nbsp;+ 指定された件数分を元データより取得する()｜callDatabase():&lt;br&gt;&amp;nbsp;+ データを全て表示する()｜allDisplay():&amp;nbsp;&lt;br&gt;&amp;nbsp;+ 編集画面を表示する()｜modalOpen(item: Object, key: String):" style="verticalAlign=top;align=left;overflow=fill;fontSize=12;fontFamily=Helvetica;html=1;" vertex="1" parent="1">
          <mxGeometry x="1760" y="-1760" width="410" height="330" as="geometry" />
        </mxCell>
        <mxCell id="bEE76rGEyNJp1CKL3x8u-7" value="&lt;p style=&quot;margin:0px;margin-top:4px;text-align:center;&quot;&gt;&lt;i&gt;&amp;lt;&amp;lt;bind&amp;gt;&amp;gt;&lt;/i&gt;&lt;br&gt;&lt;b&gt;オプションバー｜options-bar&lt;/b&gt;&lt;/p&gt;&lt;hr size=&quot;1&quot;&gt;&lt;div&gt;&amp;nbsp;+ menu: Boolean&lt;span style=&quot;background-color: initial;&quot;&gt;&lt;br&gt;&lt;/span&gt;&lt;/div&gt;&lt;div&gt;&lt;span style=&quot;background-color: initial;&quot;&gt;&amp;nbsp;+ callapseOn: Boolean&lt;/span&gt;&lt;/div&gt;&lt;div&gt;&lt;span style=&quot;background-color: initial;&quot;&gt;&amp;nbsp;+ searchWord: String&lt;/span&gt;&lt;/div&gt;&lt;div&gt;&lt;span style=&quot;background-color: initial;&quot;&gt;&amp;nbsp;+ dates: Array&lt;/span&gt;&lt;/div&gt;&lt;div&gt;&amp;nbsp;+ isMyData: Boolean&lt;span style=&quot;background-color: initial;&quot;&gt;&lt;br&gt;&lt;/span&gt;&lt;/div&gt;&lt;hr size=&quot;1&quot;&gt;&lt;p style=&quot;margin:0px;margin-left:4px;&quot;&gt;&lt;span style=&quot;background-color: initial;&quot;&gt;+ 検索する()｜searchStart():&amp;nbsp;&lt;/span&gt;&lt;/p&gt;&lt;p style=&quot;margin:0px;margin-left:4px;&quot;&gt;+ 日付期間を選択し抽出する()｜filterDateRange():&amp;nbsp;&lt;br&gt;&lt;/p&gt;&amp;nbsp;+ 検索条件をクリアする()｜clear()&lt;br&gt;&amp;nbsp;+ 自身のデータのみ表示する()｜changeMyData():&lt;br&gt;&amp;nbsp;+ 検索窓を表示する()｜openMenu():&lt;span style=&quot;background-color: initial;&quot;&gt;&lt;br&gt;&lt;/span&gt;" style="verticalAlign=top;align=left;overflow=fill;fontSize=12;fontFamily=Helvetica;html=1;" vertex="1" parent="1">
          <mxGeometry x="1350" y="-845" width="320" height="220" as="geometry" />
        </mxCell>
        <mxCell id="bEE76rGEyNJp1CKL3x8u-8" value="&lt;p style=&quot;margin:0px;margin-top:4px;text-align:center;&quot;&gt;&lt;i&gt;&amp;lt;&amp;lt;bind&amp;gt;&amp;gt;&lt;/i&gt;&lt;br&gt;&lt;b&gt;種名選択｜animal-category-select2&lt;/b&gt;&lt;/p&gt;&lt;hr size=&quot;1&quot;&gt;&lt;div&gt;&lt;span style=&quot;background-color: initial;&quot;&gt;&amp;nbsp;+ animal_category_id: String&lt;/span&gt;&lt;/div&gt;&lt;div&gt;&amp;nbsp;+ large_category_name: String&lt;br&gt;&lt;/div&gt;&lt;div&gt;&amp;nbsp;+ small_category_name: String&lt;br&gt;&lt;/div&gt;&lt;hr size=&quot;1&quot;&gt;&lt;p style=&quot;margin:0px;margin-left:4px;&quot;&gt;&lt;span style=&quot;background-color: initial;&quot;&gt;+ 種名の選択を変更する()｜changeSelect(animal_category_id):&amp;nbsp;&lt;/span&gt;&lt;/p&gt;&lt;p style=&quot;margin:0px;margin-left:4px;&quot;&gt;+ 入力値より分類IDと小分類IDを取得する()｜setRelations(animal_category_id):&amp;nbsp;&lt;span style=&quot;background-color: initial;&quot;&gt;&lt;br&gt;&lt;/span&gt;&lt;/p&gt;&lt;p style=&quot;margin:0px;margin-left:4px;&quot;&gt;+ 入力チェック｜executeValid()&lt;br&gt;&lt;/p&gt;" style="verticalAlign=top;align=left;overflow=fill;fontSize=12;fontFamily=Helvetica;html=1;" vertex="1" parent="1">
          <mxGeometry x="2280" y="-1800" width="440" height="150" as="geometry" />
        </mxCell>
        <mxCell id="bEE76rGEyNJp1CKL3x8u-9" value="&amp;lt;&amp;lt;create&amp;gt;&amp;gt;" style="endArrow=open;startArrow=none;endFill=0;startFill=0;endSize=8;html=1;verticalAlign=bottom;dashed=1;labelBackgroundColor=none;rounded=0;fontColor=#000000;sourcePerimeterSpacing=0;targetPerimeterSpacing=0;strokeWidth=2;jumpSize=6;exitX=1;exitY=0.5;exitDx=0;exitDy=0;edgeStyle=orthogonalEdgeStyle;entryX=0.5;entryY=1;entryDx=0;entryDy=0;" edge="1" parent="1" source="bEE76rGEyNJp1CKL3x8u-8" target="bEE76rGEyNJp1CKL3x8u-2">
          <mxGeometry x="-0.1894" y="-2" width="160" relative="1" as="geometry">
            <mxPoint x="1170" y="-1195.4957142857143" as="sourcePoint" />
            <mxPoint x="1080" y="-1195.21" as="targetPoint" />
            <mxPoint as="offset" />
            <Array as="points">
              <mxPoint x="2820" y="-1725" />
              <mxPoint x="2820" y="-660" />
              <mxPoint x="338" y="-660" />
            </Array>
          </mxGeometry>
        </mxCell>
        <mxCell id="bEE76rGEyNJp1CKL3x8u-10" value="&lt;p style=&quot;margin:0px;margin-top:4px;text-align:center;&quot;&gt;&lt;i&gt;&amp;lt;&amp;lt;bind&amp;gt;&amp;gt;&lt;/i&gt;&lt;br&gt;&lt;b&gt;電柱登録｜dialog-pole&lt;/b&gt;&lt;/p&gt;&lt;hr size=&quot;1&quot;&gt;&lt;div&gt;&lt;span style=&quot;background-color: initial;&quot;&gt;&amp;nbsp;# item: Object&lt;/span&gt;&lt;/div&gt;&lt;div&gt;&lt;span style=&quot;background-color: initial;&quot;&gt;&amp;nbsp;# options: Array&lt;/span&gt;&lt;/div&gt;&lt;hr size=&quot;1&quot;&gt;&lt;p style=&quot;margin:0px;margin-left:4px;&quot;&gt;&lt;span style=&quot;background-color: initial;&quot;&gt;+ 入力値より抽出する()｜matchCustom():&amp;nbsp;&lt;/span&gt;&lt;/p&gt;" style="verticalAlign=top;align=left;overflow=fill;fontSize=12;fontFamily=Helvetica;html=1;" vertex="1" parent="1">
          <mxGeometry x="1760" y="-1190" width="240" height="120" as="geometry" />
        </mxCell>
        <mxCell id="bEE76rGEyNJp1CKL3x8u-11" value="&lt;p style=&quot;margin:0px;margin-top:4px;text-align:center;&quot;&gt;&lt;i&gt;&amp;lt;&amp;lt;bind&amp;gt;&amp;gt;&lt;/i&gt;&lt;br&gt;&lt;b&gt;地図｜map&lt;/b&gt;&lt;/p&gt;&lt;hr size=&quot;1&quot;&gt;&lt;div&gt;&lt;span style=&quot;background-color: initial;&quot;&gt;&amp;nbsp;# item: Object&lt;/span&gt;&lt;/div&gt;&lt;div&gt;&lt;span style=&quot;background-color: initial;&quot;&gt;&amp;nbsp;# options: Array&lt;/span&gt;&lt;/div&gt;&lt;hr size=&quot;1&quot;&gt;&lt;p style=&quot;margin:0px;margin-left:4px;&quot;&gt;&lt;span style=&quot;background-color: initial;&quot;&gt;+ 入力値より抽出する()｜matchCustom():&amp;nbsp;&lt;/span&gt;&lt;/p&gt;" style="verticalAlign=top;align=left;overflow=fill;fontSize=12;fontFamily=Helvetica;html=1;" vertex="1" parent="1">
          <mxGeometry x="2080" y="-1191" width="280" height="120" as="geometry" />
        </mxCell>
        <mxCell id="bEE76rGEyNJp1CKL3x8u-12" value="&amp;lt;&amp;lt;create&amp;gt;&amp;gt;" style="endArrow=open;startArrow=none;endFill=0;startFill=0;endSize=8;html=1;verticalAlign=bottom;dashed=1;labelBackgroundColor=none;rounded=0;fontColor=#000000;sourcePerimeterSpacing=0;targetPerimeterSpacing=0;strokeWidth=2;jumpSize=6;entryX=0;entryY=0.5;entryDx=0;entryDy=0;exitX=1;exitY=0.5;exitDx=0;exitDy=0;" edge="1" parent="1" source="bEE76rGEyNJp1CKL3x8u-10" target="bEE76rGEyNJp1CKL3x8u-11">
          <mxGeometry x="-0.1894" y="-2" width="160" relative="1" as="geometry">
            <mxPoint x="2000" y="-1110" as="sourcePoint" />
            <mxPoint x="1100" y="-1723.9999999999998" as="targetPoint" />
            <mxPoint as="offset" />
          </mxGeometry>
        </mxCell>
        <mxCell id="bEE76rGEyNJp1CKL3x8u-13" value="&lt;p style=&quot;margin:0px;margin-top:4px;text-align:center;&quot;&gt;&lt;i&gt;&amp;lt;&amp;lt;bind&amp;gt;&amp;gt;&lt;/i&gt;&lt;br&gt;&lt;b&gt;日付編集｜form-date&lt;/b&gt;&lt;/p&gt;&lt;hr size=&quot;1&quot;&gt;&lt;div&gt;&lt;span style=&quot;background-color: initial;&quot;&gt;&amp;nbsp;# item: Object&lt;/span&gt;&lt;/div&gt;&lt;hr size=&quot;1&quot;&gt;&lt;p style=&quot;margin:0px;margin-left:4px;&quot;&gt;&lt;span style=&quot;background-color: initial;&quot;&gt;+ あいまい選択切り替え()｜rememberChange(val):&amp;nbsp;&lt;/span&gt;&lt;/p&gt;&lt;p style=&quot;margin:0px;margin-left:4px;&quot;&gt;&lt;span style=&quot;background-color: initial;&quot;&gt;+ 入力チェック｜executeValid()&lt;br&gt;&lt;/span&gt;&lt;/p&gt;&lt;p style=&quot;margin:0px;margin-left:4px;&quot;&gt;&lt;br&gt;&lt;/p&gt;" style="verticalAlign=top;align=left;overflow=fill;fontSize=12;fontFamily=Helvetica;html=1;" vertex="1" parent="1">
          <mxGeometry x="2280" y="-1630" width="300" height="110" as="geometry" />
        </mxCell>
        <mxCell id="bEE76rGEyNJp1CKL3x8u-14" value="&lt;p style=&quot;margin:0px;margin-top:4px;text-align:center;&quot;&gt;&lt;i&gt;&amp;lt;&amp;lt;bind&amp;gt;&amp;gt;&lt;/i&gt;&lt;br&gt;&lt;b&gt;時刻編集｜form-time&lt;/b&gt;&lt;/p&gt;&lt;hr size=&quot;1&quot;&gt;&lt;div&gt;&lt;span style=&quot;background-color: initial;&quot;&gt;&amp;nbsp;# item: Object&lt;/span&gt;&lt;/div&gt;&lt;hr size=&quot;1&quot;&gt;&lt;p style=&quot;margin:0px;margin-left:4px;&quot;&gt;&lt;span style=&quot;background-color: initial;&quot;&gt;+ あいまい選択切り替え()｜rememberChange(val):&amp;nbsp;&lt;/span&gt;&lt;/p&gt;&lt;p style=&quot;margin:0px;margin-left:4px;&quot;&gt;+ 入力チェック｜executeValid()&lt;br&gt;&lt;/p&gt;" style="verticalAlign=top;align=left;overflow=fill;fontSize=12;fontFamily=Helvetica;html=1;" vertex="1" parent="1">
          <mxGeometry x="2280" y="-1490" width="300" height="110" as="geometry" />
        </mxCell>
        <mxCell id="bEE76rGEyNJp1CKL3x8u-15" value="&amp;lt;&amp;lt;create&amp;gt;&amp;gt;" style="endArrow=open;startArrow=none;endFill=0;startFill=0;endSize=8;html=1;verticalAlign=bottom;dashed=1;labelBackgroundColor=none;rounded=0;fontColor=#000000;sourcePerimeterSpacing=0;targetPerimeterSpacing=0;strokeWidth=2;jumpSize=6;entryX=0;entryY=0.5;entryDx=0;entryDy=0;exitX=1;exitY=0.75;exitDx=0;exitDy=0;" edge="1" parent="1" source="bEE76rGEyNJp1CKL3x8u-6" target="bEE76rGEyNJp1CKL3x8u-13">
          <mxGeometry x="-0.1894" y="-2" width="160" relative="1" as="geometry">
            <mxPoint x="2129.9999999999995" y="-1330" as="sourcePoint" />
            <mxPoint x="2289.9999999999995" y="-1330" as="targetPoint" />
            <mxPoint as="offset" />
          </mxGeometry>
        </mxCell>
        <mxCell id="bEE76rGEyNJp1CKL3x8u-16" value="&amp;lt;&amp;lt;create&amp;gt;&amp;gt;" style="endArrow=open;startArrow=none;endFill=0;startFill=0;endSize=8;html=1;verticalAlign=bottom;dashed=1;labelBackgroundColor=none;rounded=0;fontColor=#000000;sourcePerimeterSpacing=0;targetPerimeterSpacing=0;strokeWidth=2;jumpSize=6;entryX=0;entryY=0.5;entryDx=0;entryDy=0;exitX=1;exitY=0.75;exitDx=0;exitDy=0;" edge="1" parent="1" source="bEE76rGEyNJp1CKL3x8u-6" target="bEE76rGEyNJp1CKL3x8u-14">
          <mxGeometry x="-0.1894" y="-2" width="160" relative="1" as="geometry">
            <mxPoint x="2120" y="-1110" as="sourcePoint" />
            <mxPoint x="2291" y="-1155" as="targetPoint" />
            <mxPoint as="offset" />
          </mxGeometry>
        </mxCell>
        <mxCell id="bEE76rGEyNJp1CKL3x8u-17" value="&amp;lt;&amp;lt;create&amp;gt;&amp;gt;" style="endArrow=open;startArrow=none;endFill=0;startFill=0;endSize=8;html=1;verticalAlign=bottom;dashed=1;labelBackgroundColor=none;rounded=0;fontColor=#000000;sourcePerimeterSpacing=0;targetPerimeterSpacing=0;strokeWidth=2;jumpSize=6;entryX=0;entryY=0.5;entryDx=0;entryDy=0;exitX=1;exitY=0.25;exitDx=0;exitDy=0;" edge="1" parent="1" source="bEE76rGEyNJp1CKL3x8u-6" target="bEE76rGEyNJp1CKL3x8u-8">
          <mxGeometry x="-0.1894" y="-2" width="160" relative="1" as="geometry">
            <mxPoint x="2129.9999999999995" y="-1100" as="sourcePoint" />
            <mxPoint x="2291" y="-1015" as="targetPoint" />
            <mxPoint as="offset" />
          </mxGeometry>
        </mxCell>
        <mxCell id="bEE76rGEyNJp1CKL3x8u-18" value="&amp;lt;&amp;lt;create&amp;gt;&amp;gt;" style="endArrow=open;startArrow=none;endFill=0;startFill=0;endSize=8;html=1;verticalAlign=bottom;dashed=1;labelBackgroundColor=none;rounded=0;fontColor=#000000;sourcePerimeterSpacing=0;targetPerimeterSpacing=0;strokeWidth=2;jumpSize=6;exitX=0.5;exitY=0;exitDx=0;exitDy=0;" edge="1" parent="1" source="bEE76rGEyNJp1CKL3x8u-3" target="bEE76rGEyNJp1CKL3x8u-1">
          <mxGeometry x="-0.1894" y="-2" width="160" relative="1" as="geometry">
            <mxPoint x="1130" y="-1721.2966666666666" as="sourcePoint" />
            <mxPoint x="1010" y="-1721.005" as="targetPoint" />
            <mxPoint as="offset" />
          </mxGeometry>
        </mxCell>
        <mxCell id="bEE76rGEyNJp1CKL3x8u-19" value="&lt;p style=&quot;margin:0px;margin-top:4px;text-align:center;&quot;&gt;&lt;i&gt;&amp;lt;&amp;lt;&amp;gt;&amp;gt;&lt;/i&gt;&lt;br&gt;&lt;b&gt;マスターストア｜master&lt;/b&gt;&lt;br&gt;&lt;/p&gt;&lt;hr size=&quot;1&quot;&gt;&lt;p style=&quot;margin:0px;margin-left:4px;&quot;&gt;+ large_categories: Array&lt;/p&gt;&lt;p style=&quot;margin:0px;margin-left:4px;&quot;&gt;+ small_categories: Array&lt;br&gt;&lt;/p&gt;&lt;p style=&quot;margin:0px;margin-left:4px;&quot;&gt;+ animal_categories: Array&lt;/p&gt;&lt;p style=&quot;margin:0px;margin-left:4px;&quot;&gt;+ animal_sizes: Array&lt;br&gt;&lt;/p&gt;&lt;hr size=&quot;1&quot;&gt;&lt;p style=&quot;margin:0px;margin-left:4px;&quot;&gt;&lt;span style=&quot;background-color: initial;&quot;&gt;+ 分類を取得する()｜getLargeCategories():&lt;/span&gt;&lt;/p&gt;&lt;p style=&quot;margin:0px;margin-left:4px;&quot;&gt;+ 小分類を取得する()｜getSmallCategories():&lt;/p&gt;&lt;p style=&quot;margin:0px;margin-left:4px;&quot;&gt;+ 種名を取得する()｜getAnimalCategories():&lt;/p&gt;&lt;p style=&quot;margin:0px;margin-left:4px;&quot;&gt;+ 大きさを取得する()｜getAnimalSizes():&lt;br&gt;&lt;/p&gt;" style="verticalAlign=top;align=left;overflow=fill;fontSize=12;fontFamily=Helvetica;html=1;fontColor=#000000;" vertex="1" parent="1">
          <mxGeometry x="1400" y="-2280" width="280" height="185.5" as="geometry" />
        </mxCell>
        <mxCell id="bEE76rGEyNJp1CKL3x8u-20" value="&lt;p style=&quot;margin:0px;margin-top:4px;text-align:center;&quot;&gt;&lt;i&gt;&amp;lt;&amp;lt;&amp;gt;&amp;gt;&lt;/i&gt;&lt;br&gt;&lt;b&gt;電柱データストア｜pole&lt;/b&gt;&lt;br&gt;&lt;/p&gt;&lt;hr size=&quot;1&quot;&gt;&lt;p style=&quot;margin:0px;margin-left:4px;&quot;&gt;+ large_categories: Array&lt;/p&gt;&lt;p style=&quot;margin:0px;margin-left:4px;&quot;&gt;+ small_categories: Array&lt;br&gt;&lt;/p&gt;&lt;p style=&quot;margin:0px;margin-left:4px;&quot;&gt;+ animal_categories: Array&lt;/p&gt;&lt;p style=&quot;margin:0px;margin-left:4px;&quot;&gt;+ animal_sizes: Array&lt;br&gt;&lt;/p&gt;&lt;hr size=&quot;1&quot;&gt;&lt;p style=&quot;margin:0px;margin-left:4px;&quot;&gt;&lt;span style=&quot;background-color: initial;&quot;&gt;+ 電柱を取得する()｜gePoles():&amp;nbsp;&lt;/span&gt;&lt;/p&gt;&lt;span style=&quot;color: rgba(0, 0, 0, 0); font-family: monospace; font-size: 0px;&quot;&gt;%3CmxGraphModel%3E%3Croot%3E%3CmxCell%20id%3D%220%22%2F%3E%3CmxCell%20id%3D%221%22%20parent%3D%220%22%2F%3E%3CmxCell%20id%3D%222%22%20value%3D%22%26amp%3Blt%3B%26amp%3Blt%3Bcreate%26amp%3Bgt%3B%26amp%3Bgt%3B%22%20style%3D%22endArrow%3Dopen%3Bhtml%3D1%3Brounded%3D0%3Balign%3Dcenter%3BverticalAlign%3Dbottom%3Bdashed%3D1%3BendFill%3D0%3BlabelBackgroundColor%3Dnone%3BfontColor%3D%23000000%3BstartSize%3D22%3BendSize%3D6%3BsourcePerimeterSpacing%3D0%3BtargetPerimeterSpacing%3D0%3BstrokeWidth%3D2%3BjumpSize%3D6%3BexitX%3D0%3BexitY%3D0%3BexitDx%3D0%3BexitDy%3D0%3BentryX%3D0.5%3BentryY%3D1%3BentryDx%3D0%3BentryDy%3D0%3B%22%20edge%3D%221%22%20parent%3D%221%22%3E%3CmxGeometry%20relative%3D%221%22%20as%3D%22geometry%22%3E%3CmxPoint%20x%3D%221156.250000000001%22%20y%3D%22-1780%22%20as%3D%22sourcePoint%22%2F%3E%3CmxPoint%20x%3D%22865%22%20y%3D%22-2054.5%22%20as%3D%22targetPoint%22%2F%3E%3C%2FmxGeometry%3E%3C%2FmxCell%3E%3CmxCell%20id%3D%223%22%20value%3D%22%E3%83%AD%E3%83%BC%E3%83%89%E3%82%AD%E3%83%AB%E8%AA%BF%E6%9F%BBDB%E9%80%A3%E6%90%BA%22%20style%3D%22resizable%3D0%3Bhtml%3D1%3Balign%3Dcenter%3BverticalAlign%3Dtop%3BlabelBackgroundColor%3Dnone%3BfontColor%3D%23000000%3B%22%20connectable%3D%220%22%20vertex%3D%221%22%20parent%3D%222%22%3E%3CmxGeometry%20relative%3D%221%22%20as%3D%22geometry%22%2F%3E%3C%2FmxCell%3E%3C%2Froot%3E%3C%2FmxGraphMode&lt;br&gt;&lt;/span&gt;" style="verticalAlign=top;align=left;overflow=fill;fontSize=12;fontFamily=Helvetica;html=1;fontColor=#000000;" vertex="1" parent="1">
          <mxGeometry x="840" y="-2240" width="240" height="140" as="geometry" />
        </mxCell>
        <mxCell id="bEE76rGEyNJp1CKL3x8u-21" value="1" style="endArrow=open;html=1;endSize=12;startArrow=diamondThin;startSize=14;startFill=0;align=left;verticalAlign=bottom;rounded=0;dashed=1;fontColor=#000000;sourcePerimeterSpacing=0;targetPerimeterSpacing=0;strokeWidth=2;jumpSize=6;exitX=0;exitY=0.5;exitDx=0;exitDy=0;entryX=1;entryY=0.5;entryDx=0;entryDy=0;" edge="1" parent="1" source="bEE76rGEyNJp1CKL3x8u-5" target="bEE76rGEyNJp1CKL3x8u-2">
          <mxGeometry x="-1" y="3" relative="1" as="geometry">
            <mxPoint x="570" y="-1613" as="sourcePoint" />
            <mxPoint x="480" y="-1613" as="targetPoint" />
          </mxGeometry>
        </mxCell>
        <mxCell id="bEE76rGEyNJp1CKL3x8u-22" value="&amp;lt;&amp;lt;create&amp;gt;&amp;gt;" style="endArrow=open;html=1;rounded=0;align=center;verticalAlign=bottom;dashed=1;endFill=0;labelBackgroundColor=none;fontColor=#000000;startSize=22;endSize=6;sourcePerimeterSpacing=0;targetPerimeterSpacing=0;strokeWidth=2;jumpSize=6;exitX=0.5;exitY=0;exitDx=0;exitDy=0;entryX=0.5;entryY=1;entryDx=0;entryDy=0;" edge="1" parent="1" source="bEE76rGEyNJp1CKL3x8u-1" target="bEE76rGEyNJp1CKL3x8u-34">
          <mxGeometry relative="1" as="geometry">
            <mxPoint x="1156.250000000001" y="-1695.5" as="sourcePoint" />
            <mxPoint x="1250" y="-2090" as="targetPoint" />
          </mxGeometry>
        </mxCell>
        <mxCell id="bEE76rGEyNJp1CKL3x8u-23" value="小動物投稿DB連携" style="resizable=0;html=1;align=center;verticalAlign=top;labelBackgroundColor=none;fontColor=#000000;" connectable="0" vertex="1" parent="bEE76rGEyNJp1CKL3x8u-22">
          <mxGeometry relative="1" as="geometry" />
        </mxCell>
        <mxCell id="bEE76rGEyNJp1CKL3x8u-24" value="&amp;lt;&amp;lt;create&amp;gt;&amp;gt;" style="endArrow=open;html=1;rounded=0;align=center;verticalAlign=bottom;dashed=1;endFill=0;labelBackgroundColor=none;fontColor=#000000;startSize=22;endSize=6;sourcePerimeterSpacing=0;targetPerimeterSpacing=0;strokeWidth=2;jumpSize=6;entryX=0.5;entryY=1;entryDx=0;entryDy=0;exitX=0.75;exitY=0;exitDx=0;exitDy=0;" edge="1" parent="1" source="bEE76rGEyNJp1CKL3x8u-1" target="bEE76rGEyNJp1CKL3x8u-19">
          <mxGeometry relative="1" as="geometry">
            <mxPoint x="1370" y="-1885.5" as="sourcePoint" />
            <mxPoint x="1210" y="-1945.5" as="targetPoint" />
          </mxGeometry>
        </mxCell>
        <mxCell id="bEE76rGEyNJp1CKL3x8u-25" value="種名DB連携" style="resizable=0;html=1;align=center;verticalAlign=top;labelBackgroundColor=none;fontColor=#000000;" connectable="0" vertex="1" parent="bEE76rGEyNJp1CKL3x8u-24">
          <mxGeometry relative="1" as="geometry" />
        </mxCell>
        <mxCell id="bEE76rGEyNJp1CKL3x8u-26" value="&amp;lt;&amp;lt;create&amp;gt;&amp;gt;" style="endArrow=open;html=1;rounded=0;align=center;verticalAlign=bottom;dashed=1;endFill=0;labelBackgroundColor=none;fontColor=#000000;startSize=22;endSize=6;sourcePerimeterSpacing=0;targetPerimeterSpacing=0;strokeWidth=2;jumpSize=6;exitX=0.25;exitY=0;exitDx=0;exitDy=0;entryX=0.5;entryY=1;entryDx=0;entryDy=0;" edge="1" parent="1" source="bEE76rGEyNJp1CKL3x8u-1" target="bEE76rGEyNJp1CKL3x8u-20">
          <mxGeometry relative="1" as="geometry">
            <mxPoint x="1490" y="-1874.63" as="sourcePoint" />
            <mxPoint x="830" y="-2005.5" as="targetPoint" />
          </mxGeometry>
        </mxCell>
        <mxCell id="bEE76rGEyNJp1CKL3x8u-27" value="電柱DB連携" style="resizable=0;html=1;align=center;verticalAlign=top;labelBackgroundColor=none;fontColor=#000000;" connectable="0" vertex="1" parent="bEE76rGEyNJp1CKL3x8u-26">
          <mxGeometry relative="1" as="geometry" />
        </mxCell>
        <mxCell id="bEE76rGEyNJp1CKL3x8u-28" value="&lt;span style=&quot;color: rgb(0, 0, 0); font-family: Helvetica; font-size: 12px; font-style: normal; font-variant-ligatures: normal; font-variant-caps: normal; font-weight: 400; letter-spacing: normal; orphans: 2; text-align: right; text-indent: 0px; text-transform: none; widows: 2; word-spacing: 0px; -webkit-text-stroke-width: 0px; background-color: rgb(248, 249, 250); text-decoration-thickness: initial; text-decoration-style: initial; text-decoration-color: initial; float: none; display: inline !important;&quot;&gt;+ props&amp;nbsp;&lt;/span&gt;&lt;span style=&quot;text-align: right;&quot;&gt;{&lt;/span&gt;&lt;span style=&quot;color: rgb(0, 0, 0); font-family: Helvetica; font-size: 12px; font-style: normal; font-variant-ligatures: normal; font-variant-caps: normal; font-weight: 400; letter-spacing: normal; orphans: 2; text-align: right; text-indent: 0px; text-transform: none; widows: 2; word-spacing: 0px; -webkit-text-stroke-width: 0px; background-color: rgb(248, 249, 250); text-decoration-thickness: initial; text-decoration-style: initial; text-decoration-color: initial; float: none; display: inline !important;&quot;&gt;item: Object,&amp;nbsp;&lt;br&gt;largeCategories: Array,&lt;br&gt;&lt;/span&gt;&lt;span style=&quot;color: rgb(0, 0, 0); font-family: Helvetica; font-size: 12px; font-style: normal; font-variant-ligatures: normal; font-variant-caps: normal; font-weight: 400; letter-spacing: normal; orphans: 2; text-align: right; text-indent: 0px; text-transform: none; widows: 2; word-spacing: 0px; -webkit-text-stroke-width: 0px; background-color: rgb(248, 249, 250); text-decoration-thickness: initial; text-decoration-style: initial; text-decoration-color: initial; float: none; display: inline !important;&quot;&gt;smallCategories: Array,&lt;br&gt;animalCategories: Array}&lt;/span&gt;" style="text;whiteSpace=wrap;html=1;" vertex="1" parent="1">
          <mxGeometry x="2280" y="-1870" width="160" height="70" as="geometry" />
        </mxCell>
        <mxCell id="bEE76rGEyNJp1CKL3x8u-29" value="&lt;p style=&quot;margin:0px;margin-top:4px;text-align:center;&quot;&gt;&lt;i&gt;&amp;lt;&amp;lt;bind&amp;gt;&amp;gt;&lt;/i&gt;&lt;br&gt;&lt;b&gt;日付範囲選択｜date&lt;/b&gt;&lt;b style=&quot;background-color: initial;&quot;&gt;-picker-range&lt;/b&gt;&lt;/p&gt;&lt;hr size=&quot;1&quot;&gt;&lt;div&gt;&lt;span style=&quot;background-color: initial;&quot;&gt;&amp;nbsp;+&lt;/span&gt;&lt;span style=&quot;background-color: initial;&quot;&gt;&amp;nbsp;&lt;/span&gt;&lt;span style=&quot;background-color: initial;&quot;&gt;tab: String&lt;/span&gt;&lt;br&gt;&lt;/div&gt;&lt;hr size=&quot;1&quot;&gt;&lt;p style=&quot;margin:0px;margin-left:4px;&quot;&gt;+ 日付範囲を初期化()｜initDate(range: ):&lt;br&gt;&lt;/p&gt;&lt;p style=&quot;margin:0px;margin-left:4px;&quot;&gt;+ 日付範囲を初期化()｜isDateRange():&lt;br&gt;&lt;/p&gt;" style="verticalAlign=top;align=left;overflow=fill;fontSize=12;fontFamily=Helvetica;html=1;" vertex="1" parent="1">
          <mxGeometry x="1390" y="-571.5" width="240" height="116.5" as="geometry" />
        </mxCell>
        <mxCell id="bEE76rGEyNJp1CKL3x8u-30" value="&amp;lt;&amp;lt;create&amp;gt;&amp;gt;" style="endArrow=open;startArrow=none;endFill=0;startFill=0;endSize=8;html=1;verticalAlign=bottom;dashed=1;labelBackgroundColor=none;rounded=0;fontColor=#000000;sourcePerimeterSpacing=0;targetPerimeterSpacing=0;strokeWidth=2;jumpSize=6;entryX=0.5;entryY=0;entryDx=0;entryDy=0;exitX=0.5;exitY=1;exitDx=0;exitDy=0;" edge="1" parent="1" source="bEE76rGEyNJp1CKL3x8u-7" target="bEE76rGEyNJp1CKL3x8u-29">
          <mxGeometry x="-0.1894" y="-2" width="160" relative="1" as="geometry">
            <mxPoint x="1360" y="-930" as="sourcePoint" />
            <mxPoint x="2290" y="-1425" as="targetPoint" />
            <mxPoint as="offset" />
          </mxGeometry>
        </mxCell>
        <mxCell id="bEE76rGEyNJp1CKL3x8u-31" value="&amp;lt;&amp;lt;create&amp;gt;&amp;gt;" style="endArrow=open;startArrow=none;endFill=0;startFill=0;endSize=8;html=1;verticalAlign=bottom;dashed=1;labelBackgroundColor=none;rounded=0;fontColor=#000000;sourcePerimeterSpacing=0;targetPerimeterSpacing=0;strokeWidth=2;jumpSize=6;entryX=0;entryY=0.5;entryDx=0;entryDy=0;exitX=1;exitY=0.5;exitDx=0;exitDy=0;" edge="1" parent="1" source="bEE76rGEyNJp1CKL3x8u-3" target="bEE76rGEyNJp1CKL3x8u-10">
          <mxGeometry x="-0.1894" y="-2" width="160" relative="1" as="geometry">
            <mxPoint x="2130" y="-1547.5" as="sourcePoint" />
            <mxPoint x="2290" y="-1595" as="targetPoint" />
            <mxPoint as="offset" />
          </mxGeometry>
        </mxCell>
        <mxCell id="bEE76rGEyNJp1CKL3x8u-32" value="&amp;lt;&amp;lt;create&amp;gt;&amp;gt;" style="endArrow=open;startArrow=none;endFill=0;startFill=0;endSize=8;html=1;verticalAlign=bottom;dashed=1;labelBackgroundColor=none;rounded=0;fontColor=#000000;sourcePerimeterSpacing=0;targetPerimeterSpacing=0;strokeWidth=2;jumpSize=6;exitX=0.5;exitY=1;exitDx=0;exitDy=0;" edge="1" parent="1" source="bEE76rGEyNJp1CKL3x8u-3" target="bEE76rGEyNJp1CKL3x8u-7">
          <mxGeometry x="-0.1894" y="-2" width="160" relative="1" as="geometry">
            <mxPoint x="1600" y="-1340" as="sourcePoint" />
            <mxPoint x="1770" y="-1085" as="targetPoint" />
            <mxPoint as="offset" />
          </mxGeometry>
        </mxCell>
        <mxCell id="bEE76rGEyNJp1CKL3x8u-33" value="&amp;lt;&amp;lt;create&amp;gt;&amp;gt;" style="endArrow=open;startArrow=none;endFill=0;startFill=0;endSize=8;html=1;verticalAlign=bottom;dashed=1;labelBackgroundColor=none;rounded=0;fontColor=#000000;sourcePerimeterSpacing=0;targetPerimeterSpacing=0;strokeWidth=2;jumpSize=6;entryX=0;entryY=0.5;entryDx=0;entryDy=0;exitX=1;exitY=0.5;exitDx=0;exitDy=0;" edge="1" parent="1" source="bEE76rGEyNJp1CKL3x8u-3" target="bEE76rGEyNJp1CKL3x8u-6">
          <mxGeometry x="-0.1894" y="-2" width="160" relative="1" as="geometry">
            <mxPoint x="1600" y="-1340" as="sourcePoint" />
            <mxPoint x="1770" y="-1345" as="targetPoint" />
            <mxPoint as="offset" />
          </mxGeometry>
        </mxCell>
        <mxCell id="bEE76rGEyNJp1CKL3x8u-34" value="&lt;p style=&quot;margin:0px;margin-top:4px;text-align:center;&quot;&gt;&lt;i&gt;&amp;lt;&amp;lt;&amp;gt;&amp;gt;&lt;/i&gt;&lt;br&gt;&lt;b&gt;小動物データストア｜animal&lt;/b&gt;&lt;br&gt;&lt;/p&gt;&lt;hr size=&quot;1&quot;&gt;&lt;p style=&quot;margin:0px;margin-left:4px;&quot;&gt;+ animals: Array&lt;/p&gt;&lt;hr size=&quot;1&quot;&gt;&lt;p style=&quot;margin:0px;margin-left:4px;&quot;&gt;&lt;span style=&quot;background-color: initial;&quot;&gt;+ 小動物を取得する()｜getAnimals(): Array&lt;/span&gt;&lt;/p&gt;" style="verticalAlign=top;align=left;overflow=fill;fontSize=12;fontFamily=Helvetica;html=1;fontColor=#000000;" vertex="1" parent="1">
          <mxGeometry x="1110" y="-2240" width="250" height="120" as="geometry" />
        </mxCell>
        <mxCell id="bEE76rGEyNJp1CKL3x8u-35" value="&lt;p style=&quot;margin:0px;margin-top:4px;text-align:center;&quot;&gt;&lt;i&gt;&amp;lt;&amp;lt;bind&amp;gt;&amp;gt;&lt;/i&gt;&lt;br&gt;&lt;b&gt;ユーザー登録｜user-popover&lt;/b&gt;&lt;/p&gt;&lt;hr size=&quot;1&quot;&gt;&lt;div&gt;&lt;span style=&quot;background-color: initial;&quot;&gt;&amp;nbsp;# item: Object&lt;/span&gt;&lt;/div&gt;&lt;div&gt;&lt;span style=&quot;background-color: initial;&quot;&gt;&amp;nbsp;# title: String&lt;/span&gt;&lt;/div&gt;&lt;div&gt;&amp;nbsp;# color: String&lt;span style=&quot;background-color: initial;&quot;&gt;&lt;br&gt;&lt;/span&gt;&lt;/div&gt;&lt;hr size=&quot;1&quot;&gt;&lt;p style=&quot;margin:0px;margin-left:4px;&quot;&gt;&lt;br&gt;&lt;/p&gt;" style="verticalAlign=top;align=left;overflow=fill;fontSize=12;fontFamily=Helvetica;html=1;" vertex="1" parent="1">
          <mxGeometry x="2280" y="-1340" width="240" height="120" as="geometry" />
        </mxCell>
        <mxCell id="bEE76rGEyNJp1CKL3x8u-36" value="&amp;lt;&amp;lt;create&amp;gt;&amp;gt;" style="endArrow=open;startArrow=none;endFill=0;startFill=0;endSize=8;html=1;verticalAlign=bottom;dashed=1;labelBackgroundColor=none;rounded=0;fontColor=#000000;sourcePerimeterSpacing=0;targetPerimeterSpacing=0;strokeWidth=2;jumpSize=6;entryX=0.708;entryY=-0.018;entryDx=0;entryDy=0;entryPerimeter=0;edgeStyle=orthogonalEdgeStyle;exitX=0.5;exitY=0;exitDx=0;exitDy=0;" edge="1" parent="1" source="bEE76rGEyNJp1CKL3x8u-6" target="bEE76rGEyNJp1CKL3x8u-5">
          <mxGeometry x="-0.1894" y="-2" width="160" relative="1" as="geometry">
            <mxPoint x="1920" y="-1760" as="sourcePoint" />
            <mxPoint x="1770" y="-1345" as="targetPoint" />
            <mxPoint as="offset" />
            <Array as="points">
              <mxPoint x="1940" y="-1760" />
              <mxPoint x="1940" y="-1940" />
              <mxPoint x="895" y="-1940" />
            </Array>
          </mxGeometry>
        </mxCell>
        <mxCell id="bEE76rGEyNJp1CKL3x8u-37" value="&lt;span style=&quot;color: rgb(0, 0, 0); font-family: Helvetica; font-size: 12px; font-style: normal; font-variant-ligatures: normal; font-variant-caps: normal; font-weight: 400; letter-spacing: normal; orphans: 2; text-align: right; text-indent: 0px; text-transform: none; widows: 2; word-spacing: 0px; -webkit-text-stroke-width: 0px; background-color: rgb(248, 249, 250); text-decoration-thickness: initial; text-decoration-style: initial; text-decoration-color: initial; float: none; display: inline !important;&quot;&gt;+ props&amp;nbsp;&lt;/span&gt;&lt;span style=&quot;text-align: right;&quot;&gt;{&lt;br&gt;&lt;/span&gt;&lt;span style=&quot;color: rgb(0, 0, 0); font-family: Helvetica; font-size: 12px; font-style: normal; font-variant-ligatures: normal; font-variant-caps: normal; font-weight: 400; letter-spacing: normal; orphans: 2; text-align: right; text-indent: 0px; text-transform: none; widows: 2; word-spacing: 0px; -webkit-text-stroke-width: 0px; background-color: rgb(248, 249, 250); text-decoration-thickness: initial; text-decoration-style: initial; text-decoration-color: initial; float: none; display: inline !important;&quot;&gt;datas: Array,&amp;nbsp;&lt;br&gt;filterItem: Object,&lt;br&gt;&lt;/span&gt;&lt;span style=&quot;color: rgb(0, 0, 0); font-family: Helvetica; font-size: 12px; font-style: normal; font-variant-ligatures: normal; font-variant-caps: normal; font-weight: 400; letter-spacing: normal; orphans: 2; text-align: right; text-indent: 0px; text-transform: none; widows: 2; word-spacing: 0px; -webkit-text-stroke-width: 0px; background-color: rgb(248, 249, 250); text-decoration-thickness: initial; text-decoration-style: initial; text-decoration-color: initial; float: none; display: inline !important;&quot;&gt;search: Object}&lt;/span&gt;" style="text;whiteSpace=wrap;html=1;" vertex="1" parent="1">
          <mxGeometry x="1760" y="-1830" width="120" height="70" as="geometry" />
        </mxCell>
        <mxCell id="bEE76rGEyNJp1CKL3x8u-38" value="&lt;p style=&quot;margin:0px;margin-top:4px;text-align:center;&quot;&gt;&lt;i&gt;&amp;lt;&amp;lt;bind&amp;gt;&amp;gt;&lt;/i&gt;&lt;br&gt;&lt;b&gt;目撃現場の位置情報登録｜dialog-latlnginput&lt;/b&gt;&lt;/p&gt;&lt;hr size=&quot;1&quot;&gt;&lt;div&gt;&amp;nbsp;+ dialog: Boolean&lt;/div&gt;&lt;div&gt;&amp;nbsp;+ mapCenter: Array&amp;nbsp;&lt;/div&gt;&lt;div&gt;&amp;nbsp;+ isLatLngPhoto: Boolean&lt;/div&gt;&lt;div&gt;&lt;span style=&quot;background-color: initial;&quot;&gt;&amp;nbsp;+ form: Object&lt;/span&gt;&lt;/div&gt;&lt;hr size=&quot;1&quot;&gt;&lt;p style=&quot;margin:0px;margin-left:4px;&quot;&gt;&lt;span style=&quot;background-color: initial;&quot;&gt;+ 表示する()｜open():&amp;nbsp;&lt;/span&gt;&lt;/p&gt;&lt;p style=&quot;margin:0px;margin-left:4px;&quot;&gt;+ 閉じる()｜close():&amp;nbsp;&lt;span style=&quot;background-color: initial;&quot;&gt;&lt;br&gt;&lt;/span&gt;&lt;/p&gt;&lt;p style=&quot;margin:0px;margin-left:4px;&quot;&gt;+ 更新する()｜save():&amp;nbsp;&lt;br&gt;&lt;/p&gt;&amp;nbsp;+ 位置情報共有方法を変更する()｜&lt;span style=&quot;background-color: initial;&quot;&gt;changeTileButton():&lt;br&gt;&lt;/span&gt;&amp;nbsp;+ ()｜&lt;span style=&quot;background-color: initial;&quot;&gt;step3MapFile():&lt;br&gt;&lt;/span&gt;&amp;nbsp;+ ()｜&lt;span style=&quot;background-color: initial;&quot;&gt;childLatlng()&lt;br&gt;&lt;/span&gt;&amp;nbsp;+ ()｜&lt;span style=&quot;background-color: initial;&quot;&gt;resetLatlng()&lt;/span&gt;&lt;span style=&quot;background-color: initial;&quot;&gt;&lt;br&gt;&lt;/span&gt;&lt;br&gt;&amp;nbsp;" style="verticalAlign=top;align=left;overflow=fill;fontSize=12;fontFamily=Helvetica;html=1;" vertex="1" parent="1">
          <mxGeometry x="1760" y="-1040" width="380" height="240" as="geometry" />
        </mxCell>
        <mxCell id="bEE76rGEyNJp1CKL3x8u-39" value="&lt;p style=&quot;margin:0px;margin-top:4px;text-align:center;&quot;&gt;&lt;i&gt;&amp;lt;&amp;lt;bind&amp;gt;&amp;gt;&lt;/i&gt;&lt;br&gt;&lt;b&gt;画像アップロード処理｜dialog-picture&lt;/b&gt;&lt;/p&gt;&lt;hr size=&quot;1&quot;&gt;&lt;div&gt;&lt;span style=&quot;background-color: initial;&quot;&gt;&amp;nbsp;+ dialog: Boolean&lt;/span&gt;&lt;br&gt;&lt;/div&gt;&lt;div&gt;&amp;nbsp;+ files: Array&lt;/div&gt;&lt;div&gt;&amp;nbsp;+ form: Array&lt;br&gt;&lt;/div&gt;&lt;hr size=&quot;1&quot;&gt;&lt;p style=&quot;margin:0px;margin-left:4px;&quot;&gt;&lt;span style=&quot;background-color: initial;&quot;&gt;+ 表示する()｜open(item: Object):&amp;nbsp;&lt;/span&gt;&lt;/p&gt;&lt;p style=&quot;margin:0px;margin-left:4px;&quot;&gt;+ 閉じる()｜close():&amp;nbsp;&lt;span style=&quot;background-color: initial;&quot;&gt;&lt;br&gt;&lt;/span&gt;&lt;/p&gt;&amp;nbsp;+ 画像を登録する()｜add(file: Object):&lt;br&gt;&amp;nbsp;&lt;span style=&quot;background-color: initial;&quot;&gt;+ 画像を削除&lt;/span&gt;する()｜&lt;span style=&quot;background-color: initial;&quot;&gt;remove():&lt;br&gt;&lt;/span&gt;&amp;nbsp;&lt;span style=&quot;background-color: initial;&quot;&gt;+ &lt;/span&gt;する()｜&lt;span style=&quot;background-color: initial;&quot;&gt;childLatlng():&lt;br&gt;&lt;/span&gt;" style="verticalAlign=top;align=left;overflow=fill;fontSize=12;fontFamily=Helvetica;html=1;" vertex="1" parent="1">
          <mxGeometry x="1760" y="-1410" width="300" height="200" as="geometry" />
        </mxCell>
        <mxCell id="bEE76rGEyNJp1CKL3x8u-40" value="&lt;p style=&quot;margin:0px;margin-top:4px;text-align:center;&quot;&gt;&lt;i&gt;&amp;lt;&amp;lt;bind&amp;gt;&amp;gt;&lt;/i&gt;&lt;br&gt;&lt;b&gt;画像処理｜picture-window&lt;/b&gt;&lt;/p&gt;&lt;hr size=&quot;1&quot;&gt;&lt;div&gt;&lt;span style=&quot;background-color: initial;&quot;&gt;&amp;nbsp;+ dialog: Boolean&lt;/span&gt;&lt;br&gt;&lt;/div&gt;&lt;div&gt;&amp;nbsp;+ form: Array&lt;span style=&quot;background-color: initial;&quot;&gt;&lt;br&gt;&lt;/span&gt;&lt;/div&gt;&lt;div&gt;&amp;nbsp;+ fileList: Array&amp;nbsp;&lt;/div&gt;&lt;div&gt;&lt;span style=&quot;background-color: initial;&quot;&gt;&amp;nbsp;+ isLatlng: Boolean&lt;/span&gt;&lt;/div&gt;&lt;div&gt;&lt;span style=&quot;background-color: initial;&quot;&gt;&amp;nbsp;+ removeFile: Object&lt;/span&gt;&lt;/div&gt;&lt;hr size=&quot;1&quot;&gt;&lt;p style=&quot;margin:0px;margin-left:4px;&quot;&gt;&lt;span style=&quot;background-color: initial;&quot;&gt;+ 画像を読み込む()｜loadFiles(files: Array):&amp;nbsp;&lt;/span&gt;&lt;/p&gt;&lt;p style=&quot;margin:0px;margin-left:4px;&quot;&gt;+ 画像を圧縮し保有する()｜handleAdd(file: Object, fileList: Array):&amp;nbsp;&lt;span style=&quot;background-color: initial;&quot;&gt;&lt;br&gt;&lt;/span&gt;&lt;/p&gt;&amp;nbsp;+ 保有している画像を削除する()｜&lt;span style=&quot;background-color: initial;&quot;&gt;handleRemove&lt;/span&gt;&lt;br&gt;&amp;nbsp;+ アップロード画像を削除する()｜&lt;span style=&quot;background-color: initial;&quot;&gt;executeRemove&lt;/span&gt;&lt;br&gt;&amp;nbsp;+ HEIC画像をJPEGに変換する()｜&lt;span style=&quot;background-color: initial;&quot;&gt;heicToJpg&lt;/span&gt;&lt;br&gt;&amp;nbsp;+ 画像の名称を作成する()｜&lt;span style=&quot;background-color: initial;&quot;&gt;baseName&lt;/span&gt;&lt;br&gt;&amp;nbsp;+ 60進数から10進数に変換する()｜&lt;span style=&quot;background-color: initial;&quot;&gt;get_10_from_60_exif&lt;/span&gt;&lt;br&gt;&amp;nbsp;+ 画像を登録する()｜add()&lt;br&gt;&amp;nbsp;&lt;span style=&quot;background-color: initial;&quot;&gt;+ 画像を削除&lt;/span&gt;する()｜&lt;span style=&quot;background-color: initial;&quot;&gt;remove()&lt;/span&gt;" style="verticalAlign=top;align=left;overflow=fill;fontSize=12;fontFamily=Helvetica;html=1;fillColor=#D4E1F5;" vertex="1" parent="1">
          <mxGeometry x="2710" y="-1080" width="380" height="280" as="geometry" />
        </mxCell>
        <mxCell id="bEE76rGEyNJp1CKL3x8u-41" value="&amp;lt;&amp;lt;create&amp;gt;&amp;gt;" style="endArrow=open;startArrow=none;endFill=0;startFill=0;endSize=8;html=1;verticalAlign=bottom;dashed=1;labelBackgroundColor=none;rounded=0;fontColor=#000000;sourcePerimeterSpacing=0;targetPerimeterSpacing=0;strokeWidth=2;jumpSize=6;exitX=1;exitY=0.5;exitDx=0;exitDy=0;edgeStyle=orthogonalEdgeStyle;" edge="1" parent="1" source="bEE76rGEyNJp1CKL3x8u-38" target="bEE76rGEyNJp1CKL3x8u-11">
          <mxGeometry x="-0.1894" y="-2" width="160" relative="1" as="geometry">
            <mxPoint x="2090" y="-1301.75" as="sourcePoint" />
            <mxPoint x="2290" y="-1301.75" as="targetPoint" />
            <mxPoint as="offset" />
          </mxGeometry>
        </mxCell>
        <mxCell id="bEE76rGEyNJp1CKL3x8u-42" value="&amp;lt;&amp;lt;create&amp;gt;&amp;gt;" style="endArrow=open;startArrow=none;endFill=0;startFill=0;endSize=8;html=1;verticalAlign=bottom;dashed=1;labelBackgroundColor=none;rounded=0;fontColor=#000000;sourcePerimeterSpacing=0;targetPerimeterSpacing=0;strokeWidth=2;jumpSize=6;entryX=0;entryY=0.25;entryDx=0;entryDy=0;exitX=1;exitY=0.5;exitDx=0;exitDy=0;" edge="1" parent="1" source="bEE76rGEyNJp1CKL3x8u-3" target="bEE76rGEyNJp1CKL3x8u-39">
          <mxGeometry x="-0.1894" y="-2" width="160" relative="1" as="geometry">
            <mxPoint x="1600" y="-1380" as="sourcePoint" />
            <mxPoint x="1769.9999999999995" y="-1100" as="targetPoint" />
            <mxPoint as="offset" />
          </mxGeometry>
        </mxCell>
        <mxCell id="bEE76rGEyNJp1CKL3x8u-43" value="&amp;lt;&amp;lt;create&amp;gt;&amp;gt;" style="endArrow=open;startArrow=none;endFill=0;startFill=0;endSize=8;html=1;verticalAlign=bottom;dashed=1;labelBackgroundColor=none;rounded=0;fontColor=#000000;sourcePerimeterSpacing=0;targetPerimeterSpacing=0;strokeWidth=2;jumpSize=6;entryX=0;entryY=0.5;entryDx=0;entryDy=0;" edge="1" parent="1" source="bEE76rGEyNJp1CKL3x8u-39" target="bEE76rGEyNJp1CKL3x8u-40">
          <mxGeometry x="-0.1894" y="-2" width="160" relative="1" as="geometry">
            <mxPoint x="2010" y="-1100" as="sourcePoint" />
            <mxPoint x="2090" y="-1100" as="targetPoint" />
            <mxPoint as="offset" />
          </mxGeometry>
        </mxCell>
        <mxCell id="bEE76rGEyNJp1CKL3x8u-44" value="&amp;lt;&amp;lt;create&amp;gt;&amp;gt;" style="endArrow=open;startArrow=none;endFill=0;startFill=0;endSize=8;html=1;verticalAlign=bottom;dashed=1;labelBackgroundColor=none;rounded=0;fontColor=#000000;sourcePerimeterSpacing=0;targetPerimeterSpacing=0;strokeWidth=2;jumpSize=6;entryX=0;entryY=0.25;entryDx=0;entryDy=0;exitX=1;exitY=0.5;exitDx=0;exitDy=0;" edge="1" parent="1" source="bEE76rGEyNJp1CKL3x8u-3" target="bEE76rGEyNJp1CKL3x8u-38">
          <mxGeometry x="-0.1894" y="-2" width="160" relative="1" as="geometry">
            <mxPoint x="1609.9999999999995" y="-1290.8125" as="sourcePoint" />
            <mxPoint x="1769.9999999999995" y="-900" as="targetPoint" />
            <mxPoint as="offset" />
          </mxGeometry>
        </mxCell>
        <mxCell id="bEE76rGEyNJp1CKL3x8u-45" value="&lt;p style=&quot;margin:0px;margin-top:4px;text-align:center;&quot;&gt;&lt;i&gt;&amp;lt;&amp;lt;bind&amp;gt;&amp;gt;&lt;/i&gt;&lt;br&gt;&lt;b&gt;動画アップロード処理｜dialog-video&lt;/b&gt;&lt;/p&gt;&lt;hr size=&quot;1&quot;&gt;&lt;div&gt;&lt;span style=&quot;background-color: initial;&quot;&gt;&amp;nbsp;+ dialog: Boolean&lt;/span&gt;&lt;br&gt;&lt;/div&gt;&lt;div&gt;&amp;nbsp;+ form: Array&lt;span style=&quot;background-color: initial;&quot;&gt;&lt;br&gt;&lt;/span&gt;&lt;/div&gt;&lt;div&gt;&amp;nbsp;+ mapCenter: Array&amp;nbsp;&lt;/div&gt;&lt;div&gt;&lt;span style=&quot;background-color: initial;&quot;&gt;&amp;nbsp;+ isNone: Boolean&lt;/span&gt;&lt;/div&gt;&lt;hr size=&quot;1&quot;&gt;&lt;p style=&quot;margin:0px;margin-left:4px;&quot;&gt;&lt;span style=&quot;background-color: initial;&quot;&gt;+ ポップアップ画面を閉じる()｜open():&amp;nbsp;&lt;/span&gt;&lt;/p&gt;&lt;p style=&quot;margin:0px;margin-left:4px;&quot;&gt;+ ポップアップ画面を閉じる()｜close():&amp;nbsp;&lt;span style=&quot;background-color: initial;&quot;&gt;&lt;br&gt;&lt;/span&gt;&lt;/p&gt;&amp;nbsp;+ 画像を登録する()｜add()&lt;br&gt;&amp;nbsp;&lt;span style=&quot;background-color: initial;&quot;&gt;+ 画像を削除&lt;/span&gt;する()｜&lt;span style=&quot;background-color: initial;&quot;&gt;remove()&lt;/span&gt;" style="verticalAlign=top;align=left;overflow=fill;fontSize=12;fontFamily=Helvetica;html=1;fillColor=#FFFFFF;" vertex="1" parent="1">
          <mxGeometry x="1800" y="-2160" width="340" height="200" as="geometry" />
        </mxCell>
        <mxCell id="bEE76rGEyNJp1CKL3x8u-46" value="&lt;p style=&quot;margin:0px;margin-top:4px;text-align:center;&quot;&gt;&lt;i&gt;&amp;lt;&amp;lt;bind&amp;gt;&amp;gt;&lt;/i&gt;&lt;br&gt;&lt;b&gt;区間登録｜dialog-window-section&lt;/b&gt;&lt;/p&gt;&lt;hr size=&quot;1&quot;&gt;&lt;div&gt;&amp;nbsp;+ dialog: Boolean&lt;/div&gt;&lt;div&gt;&amp;nbsp;+ mapCenter: Array&amp;nbsp;&lt;/div&gt;&lt;div&gt;&amp;nbsp;+ isLatLngPhoto: Boolean&lt;/div&gt;&lt;div&gt;&lt;span style=&quot;background-color: initial;&quot;&gt;&amp;nbsp;+ form: Object&lt;/span&gt;&lt;/div&gt;&lt;hr size=&quot;1&quot;&gt;&lt;p style=&quot;margin:0px;margin-left:4px;&quot;&gt;&lt;span style=&quot;background-color: initial;&quot;&gt;+ 表示する()｜open():&amp;nbsp;&lt;/span&gt;&lt;/p&gt;&lt;p style=&quot;margin:0px;margin-left:4px;&quot;&gt;+ 閉じる()｜close():&amp;nbsp;&lt;span style=&quot;background-color: initial;&quot;&gt;&lt;br&gt;&lt;/span&gt;&lt;/p&gt;&lt;p style=&quot;margin:0px;margin-left:4px;&quot;&gt;+ 更新する()｜save():&amp;nbsp;&lt;br&gt;&lt;/p&gt;&amp;nbsp;+ 位置情報共有方法を変更する()｜&lt;span style=&quot;background-color: initial;&quot;&gt;changeTileButton():&lt;br&gt;&lt;/span&gt;&amp;nbsp;+ ()｜&lt;span style=&quot;background-color: initial;&quot;&gt;step3MapFile():&lt;br&gt;&lt;/span&gt;&amp;nbsp;+ ()｜&lt;span style=&quot;background-color: initial;&quot;&gt;childLatlng()&lt;br&gt;&lt;/span&gt;&amp;nbsp;+ ()｜&lt;span style=&quot;background-color: initial;&quot;&gt;resetLatlng()&lt;/span&gt;&lt;span style=&quot;background-color: initial;&quot;&gt;&lt;br&gt;&lt;/span&gt;&lt;br&gt;&amp;nbsp;" style="verticalAlign=top;align=left;overflow=fill;fontSize=12;fontFamily=Helvetica;html=1;" vertex="1" parent="1">
          <mxGeometry x="1760" y="-770" width="380" height="240" as="geometry" />
        </mxCell>
        <mxCell id="bEE76rGEyNJp1CKL3x8u-48" value="&lt;p style=&quot;margin:0px;margin-top:4px;text-align:center;&quot;&gt;&lt;i&gt;&amp;lt;&amp;lt;bind&amp;gt;&amp;gt;&lt;/i&gt;&lt;br&gt;&lt;b&gt;マップ連動｜Map-view&lt;/b&gt;&lt;/p&gt;&lt;hr size=&quot;1&quot;&gt;&lt;div&gt;&amp;nbsp;+ dialog: Boolean&lt;/div&gt;&lt;div&gt;&amp;nbsp;+ mapCenter: Array&amp;nbsp;&lt;/div&gt;&lt;div&gt;&amp;nbsp;+ isLatLngPhoto: Boolean&lt;/div&gt;&lt;div&gt;&lt;span style=&quot;background-color: initial;&quot;&gt;&amp;nbsp;+ form: Object&lt;/span&gt;&lt;/div&gt;&lt;hr size=&quot;1&quot;&gt;&lt;p style=&quot;margin:0px;margin-left:4px;&quot;&gt;&lt;span style=&quot;background-color: initial;&quot;&gt;+ 表示する()｜open():&amp;nbsp;&lt;/span&gt;&lt;/p&gt;&lt;p style=&quot;margin:0px;margin-left:4px;&quot;&gt;+ 閉じる()｜close():&amp;nbsp;&lt;span style=&quot;background-color: initial;&quot;&gt;&lt;br&gt;&lt;/span&gt;&lt;/p&gt;&lt;p style=&quot;margin:0px;margin-left:4px;&quot;&gt;+ 更新する()｜save():&amp;nbsp;&lt;br&gt;&lt;/p&gt;&amp;nbsp;+ 位置情報共有方法を変更する()｜&lt;span style=&quot;background-color: initial;&quot;&gt;changeTileButton():&lt;br&gt;&lt;/span&gt;&amp;nbsp;+ ()｜&lt;span style=&quot;background-color: initial;&quot;&gt;step3MapFile():&lt;br&gt;&lt;/span&gt;&amp;nbsp;+ ()｜&lt;span style=&quot;background-color: initial;&quot;&gt;childLatlng()&lt;br&gt;&lt;/span&gt;&amp;nbsp;+ ()｜&lt;span style=&quot;background-color: initial;&quot;&gt;resetLatlng()&lt;/span&gt;&lt;span style=&quot;background-color: initial;&quot;&gt;&lt;br&gt;&lt;/span&gt;&lt;br&gt;&amp;nbsp;" style="verticalAlign=top;align=left;overflow=fill;fontSize=12;fontFamily=Helvetica;html=1;" vertex="1" parent="1">
          <mxGeometry x="2280" y="-2120" width="380" height="240" as="geometry" />
        </mxCell>
      </root>
    </mxGraphModel>
  </diagram>
</mxfile>
